<svg xmlns="http://www.w3.org/2000/svg" xmlns:xlink="http://www.w3.org/1999/xlink" width="500" zoomAndPan="magnify" viewBox="0 0 375 374.999991" height="500" preserveAspectRatio="xMidYMid meet" version="1.0"><defs><g><g id="id1"/></g><clipPath id="id2"><path d="M 45 4.441406 L 323 4.441406 L 323 183 L 45 183 Z M 45 4.441406 " clip-rule="nonzero"/></clipPath><clipPath id="id3"><path d="M 27.136719 82.109375 L 337.636719 82.109375 L 337.636719 296.089844 L 27.136719 296.089844 Z M 27.136719 82.109375 " clip-rule="nonzero"/></clipPath></defs><path fill="rgb(98.039246%, 68.629456%, 25.099182%)" d="M 205.960938 123.054688 C 205.960938 128.359375 210.277344 132.671875 215.582031 132.671875 C 220.886719 132.671875 225.199219 128.359375 225.199219 123.054688 C 225.199219 117.753906 220.886719 113.441406 215.582031 113.441406 C 210.277344 113.441406 205.960938 117.753906 205.960938 123.054688 " fill-opacity="1" fill-rule="nonzero"/><g clip-path="url(#id2)"><path fill="rgb(98.039246%, 68.629456%, 25.099182%)" d="M 72.011719 160.105469 C 71.203125 157.960938 70.761719 155.636719 70.761719 153.210938 C 70.761719 142.378906 79.574219 133.566406 90.410156 133.566406 C 101.25 133.566406 110.0625 142.378906 110.0625 153.210938 C 110.0625 155.621094 109.625 157.929688 108.828125 160.066406 L 125.371094 174.53125 C 128.949219 169.65625 134.71875 166.480469 141.21875 166.480469 C 147.898438 166.480469 153.804688 169.832031 157.359375 174.933594 L 197.980469 131.78125 C 196.667969 129.152344 195.929688 126.1875 195.929688 123.054688 C 195.929688 112.222656 204.742188 103.414062 215.582031 103.414062 C 226.417969 103.414062 235.230469 112.222656 235.230469 123.054688 C 235.230469 125.4375 234.804688 127.71875 234.027344 129.832031 L 248.5 142.296875 C 251.695312 140.054688 255.578125 138.734375 259.769531 138.734375 C 263.148438 138.734375 266.335938 139.59375 269.117188 141.101562 L 306.558594 102.378906 L 296.472656 92.6875 L 322.304688 85.226562 C 298.382812 37.402344 248.941406 4.558594 191.8125 4.558594 C 111.273438 4.558594 45.984375 69.820312 45.984375 150.324219 C 45.984375 161.394531 47.222656 172.179688 49.5625 182.542969 L 72.011719 160.105469 " fill-opacity="1" fill-rule="nonzero"/></g><path fill="rgb(98.039246%, 68.629456%, 25.099182%)" d="M 259.769531 148.761719 C 254.464844 148.761719 250.148438 153.078125 250.148438 158.378906 C 250.148438 163.679688 254.464844 167.992188 259.769531 167.992188 C 265.074219 167.992188 269.386719 163.679688 269.386719 158.378906 C 269.386719 153.078125 265.074219 148.761719 259.769531 148.761719 " fill-opacity="1" fill-rule="nonzero"/><path fill="rgb(98.039246%, 68.629456%, 25.099182%)" d="M 131.601562 186.125 C 131.601562 191.429688 135.917969 195.742188 141.21875 195.742188 C 146.523438 195.742188 150.839844 191.429688 150.839844 186.125 C 150.839844 180.824219 146.523438 176.511719 141.21875 176.511719 C 135.917969 176.511719 131.601562 180.824219 131.601562 186.125 " fill-opacity="1" fill-rule="nonzero"/><g clip-path="url(#id3)"><path fill="rgb(3.919983%, 10.5896%, 23.139954%)" d="M 331.894531 109.710938 C 332.414062 97.398438 332.996094 82.140625 332.996094 82.140625 L 323.875 119.027344 L 313.785156 109.332031 C 308.132812 115.191406 281.609375 142.597656 276.425781 147.972656 C 278.320312 150.992188 279.421875 154.558594 279.421875 158.378906 C 279.421875 169.210938 270.605469 178.023438 259.769531 178.023438 C 248.933594 178.023438 240.117188 169.210938 240.117188 158.378906 C 240.117188 155.363281 240.800781 152.507812 242.019531 149.949219 C 236.824219 145.503906 232.203125 141.523438 228.226562 138.078125 C 224.804688 140.960938 220.394531 142.699219 215.582031 142.699219 C 211.527344 142.699219 207.753906 141.46875 204.621094 139.355469 C 199.710938 144.558594 169.164062 177.066406 160.867188 185.816406 C 160.867188 185.921875 160.875 186.023438 160.875 186.125 C 160.875 196.957031 152.058594 205.773438 141.21875 205.773438 C 130.386719 205.773438 121.570312 196.957031 121.570312 186.125 C 121.570312 185.609375 121.59375 185.097656 121.632812 184.589844 C 109.949219 174.375 105.0625 170.097656 102.992188 168.289062 C 99.582031 171.136719 95.195312 172.855469 90.410156 172.855469 C 85.675781 172.855469 81.328125 171.171875 77.929688 168.371094 L 27.136719 219.144531 L 55.71875 202.777344 C 76.789062 257.363281 129.773438 296.089844 191.8125 296.089844 C 272.347656 296.089844 337.636719 230.828125 337.636719 150.324219 C 337.636719 136.226562 335.628906 122.605469 331.894531 109.710938 " fill-opacity="1" fill-rule="nonzero"/></g><path fill="rgb(98.039246%, 68.629456%, 25.099182%)" d="M 80.792969 153.210938 C 80.792969 158.515625 85.105469 162.828125 90.410156 162.828125 C 95.714844 162.828125 100.03125 158.515625 100.03125 153.210938 C 100.03125 147.910156 95.714844 143.59375 90.410156 143.59375 C 85.105469 143.59375 80.792969 147.910156 80.792969 153.210938 " fill-opacity="1" fill-rule="nonzero"/><g fill="rgb(98.039246%, 68.629456%, 25.099182%)" fill-opacity="1"><g transform="translate(20.949587, 353.337227)"><g><path d="M 21.140625 -48.78125 C 23.734375 -48.78125 26.269531 -48.398438 28.75 -47.640625 C 31.226562 -46.890625 33.066406 -46.148438 34.265625 -45.421875 L 36.015625 -44.25 L 31.59375 -35.546875 C 31.25 -35.773438 30.765625 -36.070312 30.140625 -36.4375 C 29.523438 -36.8125 28.363281 -37.304688 26.65625 -37.921875 C 24.957031 -38.546875 23.367188 -38.859375 21.890625 -38.859375 C 20.078125 -38.859375 18.675781 -38.46875 17.6875 -37.6875 C 16.695312 -36.914062 16.203125 -35.875 16.203125 -34.5625 C 16.203125 -33.894531 16.429688 -33.28125 16.890625 -32.71875 C 17.359375 -32.164062 18.15625 -31.566406 19.28125 -30.921875 C 20.40625 -30.285156 21.390625 -29.773438 22.234375 -29.390625 C 23.085938 -29.003906 24.40625 -28.421875 26.1875 -27.640625 C 29.289062 -26.328125 31.9375 -24.535156 34.125 -22.265625 C 36.3125 -20.003906 37.40625 -17.441406 37.40625 -14.578125 C 37.40625 -11.828125 36.910156 -9.425781 35.921875 -7.375 C 34.929688 -5.320312 33.570312 -3.710938 31.84375 -2.546875 C 30.125 -1.390625 28.21875 -0.53125 26.125 0.03125 C 24.039062 0.59375 21.78125 0.875 19.34375 0.875 C 17.25 0.875 15.191406 0.660156 13.171875 0.234375 C 11.160156 -0.191406 9.476562 -0.722656 8.125 -1.359375 C 6.769531 -2.003906 5.550781 -2.632812 4.46875 -3.25 C 3.382812 -3.875 2.59375 -4.398438 2.09375 -4.828125 L 1.328125 -5.453125 L 6.796875 -14.640625 C 7.253906 -14.253906 7.890625 -13.757812 8.703125 -13.15625 C 9.523438 -12.550781 10.96875 -11.742188 13.03125 -10.734375 C 15.101562 -9.734375 16.9375 -9.234375 18.53125 -9.234375 C 23.132812 -9.234375 25.4375 -10.800781 25.4375 -13.9375 C 25.4375 -14.59375 25.269531 -15.203125 24.9375 -15.765625 C 24.613281 -16.328125 24.035156 -16.890625 23.203125 -17.453125 C 22.367188 -18.015625 21.628906 -18.457031 20.984375 -18.78125 C 20.347656 -19.113281 19.304688 -19.617188 17.859375 -20.296875 C 16.410156 -20.972656 15.335938 -21.488281 14.640625 -21.84375 C 11.734375 -23.269531 9.484375 -25.054688 7.890625 -27.203125 C 6.304688 -29.359375 5.515625 -31.675781 5.515625 -34.15625 C 5.515625 -38.445312 7.101562 -41.957031 10.28125 -44.6875 C 13.457031 -47.414062 17.078125 -48.78125 21.140625 -48.78125 Z M 21.140625 -48.78125 "/></g></g></g><g fill="rgb(98.039246%, 68.629456%, 25.099182%)" fill-opacity="1"><g transform="translate(59.972611, 353.337227)"><g><path d="M 6.296875 -3.53125 C 2.984375 -6.476562 1.328125 -10.253906 1.328125 -14.859375 C 1.328125 -19.472656 3.050781 -23.257812 6.5 -26.21875 C 9.945312 -29.1875 14.207031 -30.671875 19.28125 -30.671875 C 24.28125 -30.671875 28.488281 -29.175781 31.90625 -26.1875 C 35.332031 -23.207031 37.046875 -19.429688 37.046875 -14.859375 C 37.046875 -10.296875 35.367188 -6.53125 32.015625 -3.5625 C 28.671875 -0.601562 24.425781 0.875 19.28125 0.875 C 13.9375 0.875 9.609375 -0.59375 6.296875 -3.53125 Z M 14.25 -19.921875 C 12.914062 -18.609375 12.25 -16.925781 12.25 -14.875 C 12.25 -12.820312 12.890625 -11.144531 14.171875 -9.84375 C 15.453125 -8.550781 17.132812 -7.90625 19.21875 -7.90625 C 21.238281 -7.90625 22.894531 -8.5625 24.1875 -9.875 C 25.488281 -11.1875 26.140625 -12.851562 26.140625 -14.875 C 26.140625 -16.925781 25.46875 -18.609375 24.125 -19.921875 C 22.789062 -21.234375 21.15625 -21.890625 19.21875 -21.890625 C 17.25 -21.890625 15.59375 -21.234375 14.25 -19.921875 Z M 14.25 -19.921875 "/></g></g></g><g fill="rgb(98.039246%, 68.629456%, 25.099182%)" fill-opacity="1"><g transform="translate(98.356873, 353.337227)"><g><path d="M 3.484375 0 L 3.484375 -49.953125 L 13.765625 -49.953125 L 13.765625 0 Z M 3.484375 0 "/></g></g></g><g fill="rgb(98.039246%, 68.629456%, 25.099182%)" fill-opacity="1"><g transform="translate(115.603651, 353.337227)"><g><path d="M 5.515625 -3.6875 C 2.722656 -6.726562 1.328125 -10.453125 1.328125 -14.859375 C 1.328125 -19.273438 2.722656 -23.015625 5.515625 -26.078125 C 8.304688 -29.140625 11.847656 -30.671875 16.140625 -30.671875 C 20.085938 -30.671875 23.34375 -29.429688 25.90625 -26.953125 L 25.90625 -29.796875 L 36.1875 -29.796875 L 36.1875 0 L 26.015625 0 L 26.015625 -3.375 L 25.90625 -3.375 C 23.34375 -0.539062 20.085938 0.875 16.140625 0.875 C 11.847656 0.875 8.304688 -0.644531 5.515625 -3.6875 Z M 14.25 -19.921875 C 12.914062 -18.609375 12.25 -16.925781 12.25 -14.875 C 12.25 -12.820312 12.890625 -11.144531 14.171875 -9.84375 C 15.453125 -8.550781 17.132812 -7.90625 19.21875 -7.90625 C 21.238281 -7.90625 22.894531 -8.5625 24.1875 -9.875 C 25.488281 -11.1875 26.140625 -12.851562 26.140625 -14.875 C 26.140625 -16.925781 25.46875 -18.609375 24.125 -19.921875 C 22.789062 -21.234375 21.15625 -21.890625 19.21875 -21.890625 C 17.25 -21.890625 15.59375 -21.234375 14.25 -19.921875 Z M 14.25 -19.921875 "/></g></g></g><g fill="rgb(98.039246%, 68.629456%, 25.099182%)" fill-opacity="1"><g transform="translate(155.26544, 353.337227)"><g><path d="M 3.484375 0 L 3.484375 -29.796875 L 13.765625 -29.796875 L 13.765625 -25.5 L 13.875 -25.5 C 13.957031 -25.65625 14.082031 -25.847656 14.25 -26.078125 C 14.425781 -26.304688 14.804688 -26.710938 15.390625 -27.296875 C 15.972656 -27.878906 16.59375 -28.398438 17.25 -28.859375 C 17.90625 -29.328125 18.753906 -29.742188 19.796875 -30.109375 C 20.847656 -30.484375 21.914062 -30.671875 23 -30.671875 C 24.125 -30.671875 25.226562 -30.515625 26.3125 -30.203125 C 27.394531 -29.890625 28.1875 -29.578125 28.6875 -29.265625 L 29.5 -28.8125 L 25.203125 -20.09375 C 23.929688 -21.175781 22.148438 -21.71875 19.859375 -21.71875 C 18.617188 -21.71875 17.550781 -21.445312 16.65625 -20.90625 C 15.769531 -20.363281 15.144531 -19.703125 14.78125 -18.921875 C 14.414062 -18.148438 14.15625 -17.492188 14 -16.953125 C 13.84375 -16.410156 13.765625 -15.988281 13.765625 -15.6875 L 13.765625 0 Z M 3.484375 0 "/></g></g></g><g fill="rgb(98.039246%, 68.629456%, 25.099182%)" fill-opacity="1"><g transform="translate(184.184296, 353.337227)"><g><path d="M 21.140625 -48.78125 C 23.734375 -48.78125 26.269531 -48.398438 28.75 -47.640625 C 31.226562 -46.890625 33.066406 -46.148438 34.265625 -45.421875 L 36.015625 -44.25 L 31.59375 -35.546875 C 31.25 -35.773438 30.765625 -36.070312 30.140625 -36.4375 C 29.523438 -36.8125 28.363281 -37.304688 26.65625 -37.921875 C 24.957031 -38.546875 23.367188 -38.859375 21.890625 -38.859375 C 20.078125 -38.859375 18.675781 -38.46875 17.6875 -37.6875 C 16.695312 -36.914062 16.203125 -35.875 16.203125 -34.5625 C 16.203125 -33.894531 16.429688 -33.28125 16.890625 -32.71875 C 17.359375 -32.164062 18.15625 -31.566406 19.28125 -30.921875 C 20.40625 -30.285156 21.390625 -29.773438 22.234375 -29.390625 C 23.085938 -29.003906 24.40625 -28.421875 26.1875 -27.640625 C 29.289062 -26.328125 31.9375 -24.535156 34.125 -22.265625 C 36.3125 -20.003906 37.40625 -17.441406 37.40625 -14.578125 C 37.40625 -11.828125 36.910156 -9.425781 35.921875 -7.375 C 34.929688 -5.320312 33.570312 -3.710938 31.84375 -2.546875 C 30.125 -1.390625 28.21875 -0.53125 26.125 0.03125 C 24.039062 0.59375 21.78125 0.875 19.34375 0.875 C 17.25 0.875 15.191406 0.660156 13.171875 0.234375 C 11.160156 -0.191406 9.476562 -0.722656 8.125 -1.359375 C 6.769531 -2.003906 5.550781 -2.632812 4.46875 -3.25 C 3.382812 -3.875 2.59375 -4.398438 2.09375 -4.828125 L 1.328125 -5.453125 L 6.796875 -14.640625 C 7.253906 -14.253906 7.890625 -13.757812 8.703125 -13.15625 C 9.523438 -12.550781 10.96875 -11.742188 13.03125 -10.734375 C 15.101562 -9.734375 16.9375 -9.234375 18.53125 -9.234375 C 23.132812 -9.234375 25.4375 -10.800781 25.4375 -13.9375 C 25.4375 -14.59375 25.269531 -15.203125 24.9375 -15.765625 C 24.613281 -16.328125 24.035156 -16.890625 23.203125 -17.453125 C 22.367188 -18.015625 21.628906 -18.457031 20.984375 -18.78125 C 20.347656 -19.113281 19.304688 -19.617188 17.859375 -20.296875 C 16.410156 -20.972656 15.335938 -21.488281 14.640625 -21.84375 C 11.734375 -23.269531 9.484375 -25.054688 7.890625 -27.203125 C 6.304688 -29.359375 5.515625 -31.675781 5.515625 -34.15625 C 5.515625 -38.445312 7.101562 -41.957031 10.28125 -44.6875 C 13.457031 -47.414062 17.078125 -48.78125 21.140625 -48.78125 Z M 21.140625 -48.78125 "/></g></g></g><g fill="rgb(98.039246%, 68.629456%, 25.099182%)" fill-opacity="1"><g transform="translate(223.207321, 353.337227)"><g><path d="M 19.34375 -22.25 C 17.40625 -22.25 15.738281 -21.53125 14.34375 -20.09375 C 12.945312 -18.664062 12.25 -16.941406 12.25 -14.921875 C 12.25 -12.867188 12.945312 -11.125 14.34375 -9.6875 C 15.738281 -8.257812 17.40625 -7.546875 19.34375 -7.546875 C 20.269531 -7.546875 21.148438 -7.660156 21.984375 -7.890625 C 22.816406 -8.128906 23.425781 -8.363281 23.8125 -8.59375 L 24.328125 -8.9375 L 27.8125 -1.796875 C 27.539062 -1.609375 27.160156 -1.367188 26.671875 -1.078125 C 26.191406 -0.785156 25.09375 -0.390625 23.375 0.109375 C 21.65625 0.617188 19.804688 0.875 17.828125 0.875 C 13.453125 0.875 9.609375 -0.660156 6.296875 -3.734375 C 2.984375 -6.816406 1.328125 -10.507812 1.328125 -14.8125 C 1.328125 -19.144531 2.984375 -22.867188 6.296875 -25.984375 C 9.609375 -29.109375 13.453125 -30.671875 17.828125 -30.671875 C 19.804688 -30.671875 21.625 -30.4375 23.28125 -29.96875 C 24.945312 -29.5 26.128906 -29.035156 26.828125 -28.578125 L 27.8125 -27.875 L 24.328125 -20.84375 C 23.054688 -21.78125 21.394531 -22.25 19.34375 -22.25 Z M 19.34375 -22.25 "/></g></g></g><g fill="rgb(98.039246%, 68.629456%, 25.099182%)" fill-opacity="1"><g transform="translate(251.719674, 353.337227)"><g><path d="M 6.296875 -3.53125 C 2.984375 -6.476562 1.328125 -10.253906 1.328125 -14.859375 C 1.328125 -19.472656 3.050781 -23.257812 6.5 -26.21875 C 9.945312 -29.1875 14.207031 -30.671875 19.28125 -30.671875 C 24.28125 -30.671875 28.488281 -29.175781 31.90625 -26.1875 C 35.332031 -23.207031 37.046875 -19.429688 37.046875 -14.859375 C 37.046875 -10.296875 35.367188 -6.53125 32.015625 -3.5625 C 28.671875 -0.601562 24.425781 0.875 19.28125 0.875 C 13.9375 0.875 9.609375 -0.59375 6.296875 -3.53125 Z M 14.25 -19.921875 C 12.914062 -18.609375 12.25 -16.925781 12.25 -14.875 C 12.25 -12.820312 12.890625 -11.144531 14.171875 -9.84375 C 15.453125 -8.550781 17.132812 -7.90625 19.21875 -7.90625 C 21.238281 -7.90625 22.894531 -8.5625 24.1875 -9.875 C 25.488281 -11.1875 26.140625 -12.851562 26.140625 -14.875 C 26.140625 -16.925781 25.46875 -18.609375 24.125 -19.921875 C 22.789062 -21.234375 21.15625 -21.890625 19.21875 -21.890625 C 17.25 -21.890625 15.59375 -21.234375 14.25 -19.921875 Z M 14.25 -19.921875 "/></g></g></g><g fill="rgb(98.039246%, 68.629456%, 25.099182%)" fill-opacity="1"><g transform="translate(290.103935, 353.337227)"><g><path d="M 3.484375 0 L 3.484375 -29.796875 L 13.765625 -29.796875 L 13.765625 -25.5 L 13.875 -25.5 C 13.957031 -25.65625 14.082031 -25.847656 14.25 -26.078125 C 14.425781 -26.304688 14.804688 -26.710938 15.390625 -27.296875 C 15.972656 -27.878906 16.59375 -28.398438 17.25 -28.859375 C 17.90625 -29.328125 18.753906 -29.742188 19.796875 -30.109375 C 20.847656 -30.484375 21.914062 -30.671875 23 -30.671875 C 24.125 -30.671875 25.226562 -30.515625 26.3125 -30.203125 C 27.394531 -29.890625 28.1875 -29.578125 28.6875 -29.265625 L 29.5 -28.8125 L 25.203125 -20.09375 C 23.929688 -21.175781 22.148438 -21.71875 19.859375 -21.71875 C 18.617188 -21.71875 17.550781 -21.445312 16.65625 -20.90625 C 15.769531 -20.363281 15.144531 -19.703125 14.78125 -18.921875 C 14.414062 -18.148438 14.15625 -17.492188 14 -16.953125 C 13.84375 -16.410156 13.765625 -15.988281 13.765625 -15.6875 L 13.765625 0 Z M 3.484375 0 "/></g></g></g><g fill="rgb(98.039246%, 68.629456%, 25.099182%)" fill-opacity="1"><g transform="translate(319.022792, 353.337227)"><g><path d="M 33.625 -13.46875 L 12.015625 -13.46875 C 12.015625 -11.382812 12.691406 -9.835938 14.046875 -8.828125 C 15.410156 -7.816406 16.882812 -7.3125 18.46875 -7.3125 C 20.132812 -7.3125 21.453125 -7.535156 22.421875 -7.984375 C 23.390625 -8.429688 24.492188 -9.3125 25.734375 -10.625 L 33.15625 -6.90625 C 30.0625 -1.71875 24.914062 0.875 17.71875 0.875 C 13.226562 0.875 9.375 -0.660156 6.15625 -3.734375 C 2.9375 -6.816406 1.328125 -10.523438 1.328125 -14.859375 C 1.328125 -19.203125 2.9375 -22.921875 6.15625 -26.015625 C 9.375 -29.117188 13.226562 -30.671875 17.71875 -30.671875 C 22.4375 -30.671875 26.273438 -29.300781 29.234375 -26.5625 C 32.203125 -23.832031 33.6875 -19.9375 33.6875 -14.875 C 33.6875 -14.175781 33.664062 -13.707031 33.625 -13.46875 Z M 12.3125 -19.171875 L 23.640625 -19.171875 C 23.410156 -20.710938 22.800781 -21.898438 21.8125 -22.734375 C 20.820312 -23.566406 19.550781 -23.984375 18 -23.984375 C 16.300781 -23.984375 14.945312 -23.535156 13.9375 -22.640625 C 12.925781 -21.753906 12.382812 -20.597656 12.3125 -19.171875 Z M 12.3125 -19.171875 "/></g></g></g></svg>