<svg xmlns="http://www.w3.org/2000/svg" width="165" viewBox="0 0 165 30" height="30" version="1.0"><defs><clipPath id="a"><path d="M 2.660156 1 L 21 1 L 21 26 L 2.660156 26 Z M 2.660156 1"/></clipPath><clipPath id="b"><path d="M 146 10 L 162.335938 10 L 162.335938 26 L 146 26 Z M 146 10"/></clipPath></defs><g clip-path="url(#a)"><g fill="#FFBD59"><g><g><path d="M 10.1875 -23.5 C 11.4375 -23.5 12.65625 -23.316406 13.84375 -22.953125 C 15.039062 -22.597656 15.929688 -22.242188 16.515625 -21.890625 L 17.34375 -21.328125 L 15.21875 -17.125 C 15.050781 -17.238281 14.816406 -17.382812 14.515625 -17.5625 C 14.222656 -17.738281 13.664062 -17.972656 12.84375 -18.265625 C 12.019531 -18.566406 11.253906 -18.71875 10.546875 -18.71875 C 9.671875 -18.71875 8.992188 -18.53125 8.515625 -18.15625 C 8.046875 -17.789062 7.8125 -17.289062 7.8125 -16.65625 C 7.8125 -16.332031 7.921875 -16.035156 8.140625 -15.765625 C 8.367188 -15.492188 8.753906 -15.203125 9.296875 -14.890625 C 9.835938 -14.585938 10.3125 -14.34375 10.71875 -14.15625 C 11.125 -13.96875 11.757812 -13.691406 12.625 -13.328125 C 14.113281 -12.691406 15.382812 -11.828125 16.4375 -10.734375 C 17.488281 -9.640625 18.015625 -8.40625 18.015625 -7.03125 C 18.015625 -5.695312 17.773438 -4.535156 17.296875 -3.546875 C 16.828125 -2.566406 16.175781 -1.796875 15.34375 -1.234375 C 14.519531 -0.671875 13.601562 -0.253906 12.59375 0.015625 C 11.582031 0.285156 10.488281 0.421875 9.3125 0.421875 C 8.3125 0.421875 7.320312 0.316406 6.34375 0.109375 C 5.375 -0.0976562 4.5625 -0.351562 3.90625 -0.65625 C 3.257812 -0.96875 2.675781 -1.269531 2.15625 -1.5625 C 1.632812 -1.863281 1.25 -2.117188 1 -2.328125 L 0.640625 -2.625 L 3.28125 -7.046875 C 3.5 -6.859375 3.800781 -6.617188 4.1875 -6.328125 C 4.582031 -6.046875 5.28125 -5.660156 6.28125 -5.171875 C 7.28125 -4.691406 8.160156 -4.453125 8.921875 -4.453125 C 11.140625 -4.453125 12.25 -5.207031 12.25 -6.71875 C 12.25 -7.03125 12.171875 -7.320312 12.015625 -7.59375 C 11.859375 -7.863281 11.578125 -8.132812 11.171875 -8.40625 C 10.773438 -8.675781 10.421875 -8.890625 10.109375 -9.046875 C 9.804688 -9.210938 9.304688 -9.457031 8.609375 -9.78125 C 7.910156 -10.101562 7.390625 -10.347656 7.046875 -10.515625 C 5.648438 -11.210938 4.566406 -12.078125 3.796875 -13.109375 C 3.035156 -14.140625 2.65625 -15.253906 2.65625 -16.453125 C 2.65625 -18.523438 3.421875 -20.21875 4.953125 -21.53125 C 6.484375 -22.84375 8.226562 -23.5 10.1875 -23.5 Z M 10.1875 -23.5" transform="translate(2.269 25.238)"/></g></g></g></g><g fill="#FFBD59"><g><g><path d="M 3.03125 -1.703125 C 1.4375 -3.117188 0.640625 -4.9375 0.640625 -7.15625 C 0.640625 -9.382812 1.46875 -11.210938 3.125 -12.640625 C 4.789062 -14.066406 6.847656 -14.78125 9.296875 -14.78125 C 11.703125 -14.78125 13.726562 -14.0625 15.375 -12.625 C 17.03125 -11.1875 17.859375 -9.363281 17.859375 -7.15625 C 17.859375 -4.957031 17.050781 -3.144531 15.4375 -1.71875 C 13.820312 -0.289062 11.773438 0.421875 9.296875 0.421875 C 6.710938 0.421875 4.625 -0.285156 3.03125 -1.703125 Z M 6.859375 -9.59375 C 6.222656 -8.957031 5.90625 -8.144531 5.90625 -7.15625 C 5.90625 -6.175781 6.210938 -5.375 6.828125 -4.75 C 7.441406 -4.125 8.253906 -3.8125 9.265625 -3.8125 C 10.234375 -3.8125 11.03125 -4.125 11.65625 -4.75 C 12.28125 -5.382812 12.59375 -6.1875 12.59375 -7.15625 C 12.59375 -8.144531 12.269531 -8.957031 11.625 -9.59375 C 10.976562 -10.226562 10.191406 -10.546875 9.265625 -10.546875 C 8.304688 -10.546875 7.503906 -10.226562 6.859375 -9.59375 Z M 6.859375 -9.59375" transform="translate(21.068 25.238)"/></g></g></g><g fill="#FFBD59"><g><g><path d="M 1.671875 0 L 1.671875 -24.0625 L 6.625 -24.0625 L 6.625 0 Z M 1.671875 0" transform="translate(39.56 25.238)"/></g></g></g><g fill="#FFBD59"><g><g><path d="M 2.65625 -1.765625 C 1.3125 -3.234375 0.640625 -5.03125 0.640625 -7.15625 C 0.640625 -9.289062 1.3125 -11.09375 2.65625 -12.5625 C 4 -14.039062 5.707031 -14.78125 7.78125 -14.78125 C 9.6875 -14.78125 11.253906 -14.179688 12.484375 -12.984375 L 12.484375 -14.359375 L 17.4375 -14.359375 L 17.4375 0 L 12.53125 0 L 12.53125 -1.625 L 12.484375 -1.625 C 11.253906 -0.257812 9.6875 0.421875 7.78125 0.421875 C 5.707031 0.421875 4 -0.304688 2.65625 -1.765625 Z M 6.859375 -9.59375 C 6.222656 -8.957031 5.90625 -8.144531 5.90625 -7.15625 C 5.90625 -6.175781 6.210938 -5.375 6.828125 -4.75 C 7.441406 -4.125 8.253906 -3.8125 9.265625 -3.8125 C 10.234375 -3.8125 11.03125 -4.125 11.65625 -4.75 C 12.28125 -5.382812 12.59375 -6.1875 12.59375 -7.15625 C 12.59375 -8.144531 12.269531 -8.957031 11.625 -9.59375 C 10.976562 -10.226562 10.191406 -10.546875 9.265625 -10.546875 C 8.304688 -10.546875 7.503906 -10.226562 6.859375 -9.59375 Z M 6.859375 -9.59375" transform="translate(47.868 25.238)"/></g></g></g><g fill="#FFBD59"><g><g><path d="M 1.671875 0 L 1.671875 -14.359375 L 6.625 -14.359375 L 6.625 -12.28125 L 6.6875 -12.28125 C 6.726562 -12.351562 6.789062 -12.445312 6.875 -12.5625 C 6.957031 -12.675781 7.132812 -12.875 7.40625 -13.15625 C 7.6875 -13.4375 7.984375 -13.6875 8.296875 -13.90625 C 8.617188 -14.132812 9.03125 -14.335938 9.53125 -14.515625 C 10.039062 -14.691406 10.554688 -14.78125 11.078125 -14.78125 C 11.617188 -14.78125 12.148438 -14.703125 12.671875 -14.546875 C 13.191406 -14.398438 13.578125 -14.253906 13.828125 -14.109375 L 14.21875 -13.875 L 12.140625 -9.6875 C 11.523438 -10.207031 10.671875 -10.46875 9.578125 -10.46875 C 8.972656 -10.46875 8.457031 -10.335938 8.03125 -10.078125 C 7.601562 -9.816406 7.300781 -9.5 7.125 -9.125 C 6.945312 -8.75 6.816406 -8.429688 6.734375 -8.171875 C 6.660156 -7.910156 6.625 -7.707031 6.625 -7.5625 L 6.625 0 Z M 1.671875 0" transform="translate(66.975 25.238)"/></g></g></g><g fill="#FFBD59"><g><g><path d="M 10.1875 -23.5 C 11.4375 -23.5 12.65625 -23.316406 13.84375 -22.953125 C 15.039062 -22.597656 15.929688 -22.242188 16.515625 -21.890625 L 17.34375 -21.328125 L 15.21875 -17.125 C 15.050781 -17.238281 14.816406 -17.382812 14.515625 -17.5625 C 14.222656 -17.738281 13.664062 -17.972656 12.84375 -18.265625 C 12.019531 -18.566406 11.253906 -18.71875 10.546875 -18.71875 C 9.671875 -18.71875 8.992188 -18.53125 8.515625 -18.15625 C 8.046875 -17.789062 7.8125 -17.289062 7.8125 -16.65625 C 7.8125 -16.332031 7.921875 -16.035156 8.140625 -15.765625 C 8.367188 -15.492188 8.753906 -15.203125 9.296875 -14.890625 C 9.835938 -14.585938 10.3125 -14.34375 10.71875 -14.15625 C 11.125 -13.96875 11.757812 -13.691406 12.625 -13.328125 C 14.113281 -12.691406 15.382812 -11.828125 16.4375 -10.734375 C 17.488281 -9.640625 18.015625 -8.40625 18.015625 -7.03125 C 18.015625 -5.695312 17.773438 -4.535156 17.296875 -3.546875 C 16.828125 -2.566406 16.175781 -1.796875 15.34375 -1.234375 C 14.519531 -0.671875 13.601562 -0.253906 12.59375 0.015625 C 11.582031 0.285156 10.488281 0.421875 9.3125 0.421875 C 8.3125 0.421875 7.320312 0.316406 6.34375 0.109375 C 5.375 -0.0976562 4.5625 -0.351562 3.90625 -0.65625 C 3.257812 -0.96875 2.675781 -1.269531 2.15625 -1.5625 C 1.632812 -1.863281 1.25 -2.117188 1 -2.328125 L 0.640625 -2.625 L 3.28125 -7.046875 C 3.5 -6.859375 3.800781 -6.617188 4.1875 -6.328125 C 4.582031 -6.046875 5.28125 -5.660156 6.28125 -5.171875 C 7.28125 -4.691406 8.160156 -4.453125 8.921875 -4.453125 C 11.140625 -4.453125 12.25 -5.207031 12.25 -6.71875 C 12.25 -7.03125 12.171875 -7.320312 12.015625 -7.59375 C 11.859375 -7.863281 11.578125 -8.132812 11.171875 -8.40625 C 10.773438 -8.675781 10.421875 -8.890625 10.109375 -9.046875 C 9.804688 -9.210938 9.304688 -9.457031 8.609375 -9.78125 C 7.910156 -10.101562 7.390625 -10.347656 7.046875 -10.515625 C 5.648438 -11.210938 4.566406 -12.078125 3.796875 -13.109375 C 3.035156 -14.140625 2.65625 -15.253906 2.65625 -16.453125 C 2.65625 -18.523438 3.421875 -20.21875 4.953125 -21.53125 C 6.484375 -22.84375 8.226562 -23.5 10.1875 -23.5 Z M 10.1875 -23.5" transform="translate(80.906 25.238)"/></g></g></g><g fill="#FFBD59"><g><g><path d="M 9.3125 -10.71875 C 8.382812 -10.71875 7.582031 -10.367188 6.90625 -9.671875 C 6.238281 -8.984375 5.90625 -8.15625 5.90625 -7.1875 C 5.90625 -6.195312 6.238281 -5.359375 6.90625 -4.671875 C 7.582031 -3.984375 8.382812 -3.640625 9.3125 -3.640625 C 9.757812 -3.640625 10.179688 -3.691406 10.578125 -3.796875 C 10.984375 -3.910156 11.28125 -4.023438 11.46875 -4.140625 L 11.71875 -4.3125 L 13.40625 -0.875 C 13.269531 -0.78125 13.085938 -0.660156 12.859375 -0.515625 C 12.628906 -0.378906 12.097656 -0.191406 11.265625 0.046875 C 10.429688 0.296875 9.539062 0.421875 8.59375 0.421875 C 6.476562 0.421875 4.625 -0.316406 3.03125 -1.796875 C 1.4375 -3.285156 0.640625 -5.066406 0.640625 -7.140625 C 0.640625 -9.222656 1.4375 -11.015625 3.03125 -12.515625 C 4.625 -14.023438 6.476562 -14.78125 8.59375 -14.78125 C 9.539062 -14.78125 10.414062 -14.664062 11.21875 -14.4375 C 12.019531 -14.21875 12.585938 -13.992188 12.921875 -13.765625 L 13.40625 -13.4375 L 11.71875 -10.046875 C 11.101562 -10.492188 10.300781 -10.71875 9.3125 -10.71875 Z M 9.3125 -10.71875" transform="translate(99.705 25.238)"/></g></g></g><g fill="#FFBD59"><g><g><path d="M 3.03125 -1.703125 C 1.4375 -3.117188 0.640625 -4.9375 0.640625 -7.15625 C 0.640625 -9.382812 1.46875 -11.210938 3.125 -12.640625 C 4.789062 -14.066406 6.847656 -14.78125 9.296875 -14.78125 C 11.703125 -14.78125 13.726562 -14.0625 15.375 -12.625 C 17.03125 -11.1875 17.859375 -9.363281 17.859375 -7.15625 C 17.859375 -4.957031 17.050781 -3.144531 15.4375 -1.71875 C 13.820312 -0.289062 11.773438 0.421875 9.296875 0.421875 C 6.710938 0.421875 4.625 -0.285156 3.03125 -1.703125 Z M 6.859375 -9.59375 C 6.222656 -8.957031 5.90625 -8.144531 5.90625 -7.15625 C 5.90625 -6.175781 6.210938 -5.375 6.828125 -4.75 C 7.441406 -4.125 8.253906 -3.8125 9.265625 -3.8125 C 10.234375 -3.8125 11.03125 -4.125 11.65625 -4.75 C 12.28125 -5.382812 12.59375 -6.1875 12.59375 -7.15625 C 12.59375 -8.144531 12.269531 -8.957031 11.625 -9.59375 C 10.976562 -10.226562 10.191406 -10.546875 9.265625 -10.546875 C 8.304688 -10.546875 7.503906 -10.226562 6.859375 -9.59375 Z M 6.859375 -9.59375" transform="translate(113.441 25.238)"/></g></g></g><g fill="#FFBD59"><g><g><path d="M 1.671875 0 L 1.671875 -14.359375 L 6.625 -14.359375 L 6.625 -12.28125 L 6.6875 -12.28125 C 6.726562 -12.351562 6.789062 -12.445312 6.875 -12.5625 C 6.957031 -12.675781 7.132812 -12.875 7.40625 -13.15625 C 7.6875 -13.4375 7.984375 -13.6875 8.296875 -13.90625 C 8.617188 -14.132812 9.03125 -14.335938 9.53125 -14.515625 C 10.039062 -14.691406 10.554688 -14.78125 11.078125 -14.78125 C 11.617188 -14.78125 12.148438 -14.703125 12.671875 -14.546875 C 13.191406 -14.398438 13.578125 -14.253906 13.828125 -14.109375 L 14.21875 -13.875 L 12.140625 -9.6875 C 11.523438 -10.207031 10.671875 -10.46875 9.578125 -10.46875 C 8.972656 -10.46875 8.457031 -10.335938 8.03125 -10.078125 C 7.601562 -9.816406 7.300781 -9.5 7.125 -9.125 C 6.945312 -8.75 6.816406 -8.429688 6.734375 -8.171875 C 6.660156 -7.910156 6.625 -7.707031 6.625 -7.5625 L 6.625 0 Z M 1.671875 0" transform="translate(131.933 25.238)"/></g></g></g><g clip-path="url(#b)"><g fill="#FFBD59"><g><g><path d="M 16.203125 -6.5 L 5.796875 -6.5 C 5.796875 -5.488281 6.117188 -4.738281 6.765625 -4.25 C 7.421875 -3.769531 8.132812 -3.53125 8.90625 -3.53125 C 9.707031 -3.53125 10.335938 -3.632812 10.796875 -3.84375 C 11.265625 -4.0625 11.796875 -4.488281 12.390625 -5.125 L 15.984375 -3.328125 C 14.484375 -0.828125 12 0.421875 8.53125 0.421875 C 6.363281 0.421875 4.503906 -0.316406 2.953125 -1.796875 C 1.410156 -3.285156 0.640625 -5.070312 0.640625 -7.15625 C 0.640625 -9.25 1.410156 -11.039062 2.953125 -12.53125 C 4.503906 -14.03125 6.363281 -14.78125 8.53125 -14.78125 C 10.8125 -14.78125 12.664062 -14.117188 14.09375 -12.796875 C 15.519531 -11.484375 16.234375 -9.601562 16.234375 -7.15625 C 16.234375 -6.820312 16.222656 -6.601562 16.203125 -6.5 Z M 5.9375 -9.234375 L 11.390625 -9.234375 C 11.273438 -9.984375 10.976562 -10.554688 10.5 -10.953125 C 10.03125 -11.359375 9.421875 -11.5625 8.671875 -11.5625 C 7.847656 -11.5625 7.191406 -11.34375 6.703125 -10.90625 C 6.222656 -10.476562 5.96875 -9.921875 5.9375 -9.234375 Z M 5.9375 -9.234375" transform="translate(145.864 25.238)"/></g></g></g></g></svg>